<svg height="512" viewBox="0 0 512 512" width="512" xmlns="http://www.w3.org/2000/svg"><g id="flat"><path d="m56 240h408v176h-408z" fill="#fdc9a6"/><path d="m416 288h-376a16 16 0 0 1 -16-16 16 16 0 0 1 16-16h376a16 16 0 0 1 16 16 16 16 0 0 1 -16 16z" fill="#cb2527"/><path d="m416 400h-376a16 16 0 0 1 -16-16 16 16 0 0 1 16-16h376a16 16 0 0 1 16 16 16 16 0 0 1 -16 16z" fill="#7fa038"/><rect fill="#a3612d" height="48" rx="24" width="432" x="40.001" y="320.153"/><path d="m192 352a8 8 0 0 1 -5.657-13.657l24-24a8 8 0 1 1 11.314 11.314l-24 24a7.974 7.974 0 0 1 -5.657 2.343z" fill="#7a4922"/><path d="m256 352a8 8 0 0 1 -5.657-13.657l24-24a8 8 0 0 1 11.314 11.314l-24 24a7.974 7.974 0 0 1 -5.657 2.343z" fill="#7a4922"/><path d="m128 352a8 8 0 0 1 -5.657-13.657l24-24a8 8 0 1 1 11.314 11.314l-24 24a7.976 7.976 0 0 1 -5.657 2.343z" fill="#7a4922"/><rect fill="#b22122" height="32" rx="16" width="144" x="344" y="256"/><rect fill="#cb2527" height="32" rx="16" width="144" x="248" y="256"/><rect fill="#b22122" height="32" rx="16" width="144" x="128" y="256"/><path d="m24 424h464v64h-464z" fill="#e6af89"/><path d="m24 176h464v56h-464z" fill="#fdc9a6"/><path d="m230.687 47.712-206.687 128.288h464l-206.687-128.288a48 48 0 0 0 -50.626 0z" fill="#e6af89"/><rect fill="#8eb23e" height="32" rx="16" width="144" x="344" y="368"/><rect fill="#7fa038" height="32" rx="16" width="144" x="248" y="368"/><rect fill="#8eb23e" height="32" rx="16" width="144" x="128" y="368"/><path d="m488 430c-29 0-29 20-58 20s-29-20-58-20-29 20-58 20-29-20-58-20-29 20-58 20-29-20-58-20-29 20-58 20-29-20-58-20a30 30 0 0 1 30-30h404a30 30 0 0 1 30 30z" fill="#027e2a"/><path d="m24 226c29 0 29-20 58-20s29 20 58 20 29-20 58-20 29 20 58 20 29-20 58-20 29 20 58 20 29-20 58-20 29 20 58 20a30 30 0 0 1 -30 30h-404a30 30 0 0 1 -30-30z" fill="#027e2a"/><g fill="#d6a27f"><circle cx="256" cy="120" r="8"/><circle cx="136" cy="464" r="8"/><circle cx="256" cy="456" r="8"/><circle cx="368" cy="464" r="8"/><circle cx="376" cy="144" r="8"/><circle cx="312" cy="112" r="8"/><circle cx="296" cy="144" r="8"/></g><circle cx="136" cy="200" fill="#e6af89" r="8"/><circle cx="256" cy="200" fill="#e6af89" r="8"/><circle cx="368" cy="200" fill="#e6af89" r="8"/><circle cx="224" cy="136" fill="#d6a27f" r="8"/><circle cx="200" cy="112" fill="#d6a27f" r="8"/><circle cx="160" cy="136" fill="#d6a27f" r="8"/><circle cx="264" cy="88" fill="#d6a27f" r="8"/><path d="m336 152a8 8 0 0 1 -5.657-13.657l56-56a8 8 0 0 1 11.314 11.314l-56 56a7.974 7.974 0 0 1 -5.657 2.343z" fill="#7a4922"/><circle cx="392" cy="88" fill="#8eb23e" r="24"/><circle cx="416" cy="64" fill="#cb2527" r="24"/><path d="m472 288h-432a16 16 0 0 0 -16 16 16 16 0 0 0 16 16h256a24 24 0 0 1 24 24v39.46c0 13.455 11.011 24.791 24.464 24.536a24 24 0 0 0 23.536-23.996v-23.548c0-8.615 6.621-16.028 15.227-16.434a16 16 0 0 1 16.773 15.982 24 24 0 0 0 23.536 24c13.453.251 24.464-11.085 24.464-24.54v-15.46a24 24 0 0 1 24-24 16 16 0 0 0 16-16 16 16 0 0 0 -16-16z" fill="#f7a014"/><path d="m56 256 104 48 96-48z" fill="#ffc864"/></g></svg>